<svg xmlns="http://www.w3.org/2000/svg" xmlns:xlink="http://www.w3.org/1999/xlink" width="500" zoomAndPan="magnify" viewBox="0 0 375 374.999991" height="500" preserveAspectRatio="xMidYMid meet" version="1.0"><defs><clipPath id="d3a0dda280"><path d="M 10.128906 10.128906 L 364.878906 10.128906 L 364.878906 364.878906 L 10.128906 364.878906 Z M 10.128906 10.128906 " clip-rule="nonzero"/></clipPath><clipPath id="a0a4fa1c6e"><path d="M 33.992188 101 L 139 101 L 139 233 L 33.992188 233 Z M 33.992188 101 " clip-rule="nonzero"/></clipPath><clipPath id="91e79dfad3"><path d="M 72 33.992188 L 203 33.992188 L 203 170 L 72 170 Z M 72 33.992188 " clip-rule="nonzero"/></clipPath><clipPath id="c25962a3f6"><path d="M 234 140 L 340.742188 140 L 340.742188 276 L 234 276 Z M 234 140 " clip-rule="nonzero"/></clipPath><clipPath id="ff8727971f"><path d="M 173 205 L 300 205 L 300 340.742188 L 173 340.742188 Z M 173 205 " clip-rule="nonzero"/></clipPath><clipPath id="f5e54af9ae"><path d="M 145.34375 145.34375 L 229.339844 145.34375 L 229.339844 229.339844 L 145.34375 229.339844 Z M 145.34375 145.34375 " clip-rule="nonzero"/></clipPath><clipPath id="eca48c0f2b"><path d="M 214.382812 187.507812 C 213.679688 190.632812 213.59375 193.855469 213.207031 197.035156 C 212.820312 200.210938 212.089844 203.441406 210.277344 206.078125 C 208.589844 208.527344 206 210.339844 203.121094 211.082031 C 200.246094 211.824219 191.574219 210.75 191.574219 210.75 C 191.574219 210.75 195.539062 195.132812 208.964844 187.578125 C 205.304688 189.515625 201.679688 191.570312 198.636719 194.363281 C 191.90625 200.535156 188.652344 209.816406 188.195312 218.9375 C 187.304688 214.042969 187.191406 208.398438 189.023438 203.660156 C 189.761719 201.148438 190.679688 199.070312 192.117188 196.886719 C 195.113281 192.339844 199.445312 188.800781 204.144531 186.050781 C 208.84375 183.304688 213.933594 181.292969 218.996094 179.296875 C 216.488281 181.285156 215.082031 184.382812 214.382812 187.507812 Z M 189.148438 179.515625 C 189.671875 177.734375 190.324219 176.257812 191.347656 174.707031 C 193.472656 171.476562 196.550781 168.964844 199.890625 167.011719 C 203.226562 165.0625 206.839844 163.636719 210.433594 162.214844 C 208.652344 163.628906 207.65625 165.828125 207.160156 168.046875 C 206.660156 170.265625 206.597656 172.554688 206.324219 174.8125 C 206.046875 177.066406 205.53125 179.363281 204.242188 181.234375 C 203.046875 182.972656 201.207031 184.261719 199.164062 184.789062 C 197.117188 185.3125 190.960938 184.550781 190.960938 184.550781 C 190.960938 184.550781 193.777344 173.460938 203.3125 168.097656 C 200.710938 169.472656 198.136719 170.933594 195.976562 172.914062 C 191.199219 177.296875 188.886719 183.890625 188.5625 190.363281 C 187.929688 186.890625 187.851562 182.882812 189.148438 179.515625 Z M 184.320312 202.582031 C 183.894531 194.105469 180.871094 185.476562 174.613281 179.738281 C 171.785156 177.144531 168.417969 175.234375 165.011719 173.433594 C 177.496094 180.453125 181.175781 194.972656 181.175781 194.972656 C 181.175781 194.972656 173.121094 195.96875 170.445312 195.28125 C 167.769531 194.589844 165.359375 192.90625 163.796875 190.632812 C 162.109375 188.179688 161.429688 185.175781 161.070312 182.222656 C 160.710938 179.265625 160.628906 176.269531 159.976562 173.367188 C 159.324219 170.460938 158.019531 167.582031 155.6875 165.734375 C 160.394531 167.589844 165.125 169.460938 169.492188 172.015625 C 173.863281 174.570312 177.890625 177.859375 180.675781 182.085938 C 182.011719 184.117188 182.863281 186.046875 183.550781 188.382812 C 185.25 192.789062 185.148438 198.035156 184.320312 202.582031 Z M 187.34375 145.34375 C 164.148438 145.34375 145.34375 164.148438 145.34375 187.34375 C 145.34375 210.539062 164.148438 229.339844 187.34375 229.339844 C 210.539062 229.339844 229.339844 210.539062 229.339844 187.34375 C 229.339844 164.148438 210.539062 145.34375 187.34375 145.34375 Z M 187.34375 145.34375 " clip-rule="nonzero"/></clipPath><clipPath id="3932e625e4"><path d="M 214.382812 187.507812 C 213.679688 190.632812 213.59375 193.855469 213.207031 197.035156 C 212.820312 200.210938 212.089844 203.441406 210.277344 206.078125 C 208.589844 208.527344 206 210.339844 203.121094 211.082031 C 200.246094 211.824219 191.574219 210.75 191.574219 210.75 C 191.574219 210.75 195.539062 195.132812 208.964844 187.578125 C 205.304688 189.515625 201.679688 191.570312 198.636719 194.363281 C 191.90625 200.535156 188.652344 209.816406 188.195312 218.9375 C 187.304688 214.042969 187.191406 208.398438 189.023438 203.660156 C 189.761719 201.148438 190.679688 199.070312 192.117188 196.886719 C 195.113281 192.339844 199.445312 188.800781 204.144531 186.050781 C 208.84375 183.304688 213.933594 181.292969 218.996094 179.296875 C 216.488281 181.285156 215.082031 184.382812 214.382812 187.507812 Z M 189.148438 179.515625 C 189.671875 177.734375 190.324219 176.257812 191.347656 174.707031 C 193.472656 171.476562 196.550781 168.964844 199.890625 167.011719 C 203.226562 165.0625 206.839844 163.636719 210.433594 162.214844 C 208.652344 163.628906 207.65625 165.828125 207.160156 168.046875 C 206.660156 170.265625 206.597656 172.554688 206.324219 174.8125 C 206.046875 177.066406 205.53125 179.363281 204.242188 181.234375 C 203.046875 182.972656 201.207031 184.261719 199.164062 184.789062 C 197.117188 185.3125 190.960938 184.550781 190.960938 184.550781 C 190.960938 184.550781 193.777344 173.460938 203.3125 168.097656 C 200.710938 169.472656 198.136719 170.933594 195.976562 172.914062 C 191.199219 177.296875 188.886719 183.890625 188.5625 190.363281 C 187.929688 186.890625 187.851562 182.882812 189.148438 179.515625 Z M 184.320312 202.582031 C 183.894531 194.105469 180.871094 185.476562 174.613281 179.738281 C 171.785156 177.144531 168.417969 175.234375 165.011719 173.433594 C 177.496094 180.453125 181.175781 194.972656 181.175781 194.972656 C 181.175781 194.972656 173.121094 195.96875 170.445312 195.28125 C 167.769531 194.589844 165.359375 192.90625 163.796875 190.632812 C 162.109375 188.179688 161.429688 185.175781 161.070312 182.222656 C 160.710938 179.265625 160.628906 176.269531 159.976562 173.367188 C 159.324219 170.460938 158.019531 167.582031 155.6875 165.734375 C 160.394531 167.589844 165.125 169.460938 169.492188 172.015625 C 173.863281 174.570312 177.890625 177.859375 180.675781 182.085938 C 182.011719 184.117188 182.863281 186.046875 183.550781 188.382812 C 185.25 192.789062 185.148438 198.035156 184.320312 202.582031 Z M 187.34375 145.34375 C 164.148438 145.34375 145.34375 164.148438 145.34375 187.34375 C 145.34375 210.539062 164.148438 229.339844 187.34375 229.339844 C 210.539062 229.339844 229.339844 210.539062 229.339844 187.34375 C 229.339844 164.148438 210.539062 145.34375 187.34375 145.34375 " clip-rule="nonzero"/></clipPath><linearGradient x1="0.258115" gradientTransform="matrix(0, 666.501634, -666.501634, 0, 187.34242, -26.690669)" y1="0" x2="0.384143" gradientUnits="userSpaceOnUse" y2="0" id="72d0409eed"><stop stop-opacity="1" stop-color="rgb(40.79895%, 67.799377%, 18.399048%)" offset="0"/><stop stop-opacity="1" stop-color="rgb(40.797424%, 67.797852%, 18.399048%)" offset="0.125"/><stop stop-opacity="1" stop-color="rgb(40.69519%, 67.721558%, 18.399048%)" offset="0.1875"/><stop stop-opacity="1" stop-color="rgb(40.4953%, 67.570496%, 18.400574%)" offset="0.25"/><stop stop-opacity="1" stop-color="rgb(40.29541%, 67.39502%, 18.501282%)" offset="0.3125"/><stop stop-opacity="1" stop-color="rgb(40.097046%, 67.195129%, 18.699646%)" offset="0.375"/><stop stop-opacity="1" stop-color="rgb(39.99939%, 66.995239%, 18.798828%)" offset="0.4375"/><stop stop-opacity="1" stop-color="rgb(39.997864%, 66.795349%, 18.798828%)" offset="0.5"/><stop stop-opacity="1" stop-color="rgb(39.89563%, 66.595459%, 18.798828%)" offset="0.5625"/><stop stop-opacity="1" stop-color="rgb(39.69574%, 66.395569%, 18.798828%)" offset="0.625"/><stop stop-opacity="1" stop-color="rgb(39.49585%, 66.195679%, 18.798828%)" offset="0.6875"/><stop stop-opacity="1" stop-color="rgb(39.297485%, 65.995789%, 18.798828%)" offset="0.75"/><stop stop-opacity="1" stop-color="rgb(39.199829%, 65.794373%, 18.798828%)" offset="0.8125"/><stop stop-opacity="1" stop-color="rgb(39.196777%, 65.594482%, 18.798828%)" offset="0.875"/><stop stop-opacity="1" stop-color="rgb(39.094543%, 65.394592%, 18.798828%)" offset="0.9375"/><stop stop-opacity="1" stop-color="rgb(38.896179%, 65.196228%, 18.798828%)" offset="1"/></linearGradient></defs><rect x="-37.5" width="450" fill="#ffffff" y="-37.499999" height="449.999989" fill-opacity="1"/><rect x="-37.5" width="450" fill="#ffffff" y="-37.499999" height="449.999989" fill-opacity="1"/><g clip-path="url(#d3a0dda280)"><path fill="#000000" d="M 187.503906 364.878906 C 89.511719 364.878906 10.128906 284.953125 10.128906 187.503906 C 10.128906 90.058594 89.511719 10.128906 187.503906 10.128906 C 285.5 10.128906 364.878906 89.511719 364.878906 187.503906 C 364.878906 285.5 284.953125 364.878906 187.503906 364.878906 Z M 187.503906 21.078125 C 95.53125 21.078125 21.078125 95.53125 21.078125 187.503906 C 21.078125 279.476562 95.53125 353.929688 187.503906 353.929688 C 279.476562 353.929688 353.929688 279.476562 353.929688 187.503906 C 353.929688 95.53125 278.929688 21.078125 187.503906 21.078125 Z M 187.503906 21.078125 " fill-opacity="1" fill-rule="nonzero"/></g><g clip-path="url(#a0a4fa1c6e)"><path fill="#000000" d="M 138.917969 232.324219 L 60.050781 101.425781 C 43.503906 125.894531 33.832031 155.363281 33.832031 187.058594 C 33.832031 202.808594 36.226562 218.011719 40.664062 232.324219 Z M 138.917969 232.324219 " fill-opacity="1" fill-rule="nonzero"/></g><path fill="#000000" d="M 172.054688 122.089844 L 325.785156 122.089844 C 306.042969 80.097656 267.789062 48.488281 221.589844 37.804688 Z M 172.054688 122.089844 " fill-opacity="1" fill-rule="nonzero"/><g clip-path="url(#91e79dfad3)"><path fill="#000000" d="M 122.703125 169.53125 L 202.019531 34.570312 C 197.09375 34.089844 192.105469 33.832031 187.058594 33.832031 C 141.371094 33.832031 100.324219 53.953125 72.226562 85.769531 Z M 122.703125 169.53125 " fill-opacity="1" fill-rule="nonzero"/></g><path fill="#000000" d="M 154.65625 335.464844 L 203.179688 250.839844 L 47.792969 250.839844 C 68.171875 295.160156 109.074219 328.136719 158.273438 337.539062 Z M 154.65625 335.464844 " fill-opacity="1" fill-rule="nonzero"/><g clip-path="url(#c25962a3f6)"><path fill="#000000" d="M 234.964844 140.609375 L 312.417969 275.007812 C 329.953125 250.09375 340.292969 219.769531 340.292969 187.058594 C 340.292969 170.867188 337.75 155.265625 333.070312 140.609375 Z M 234.964844 140.609375 " fill-opacity="1" fill-rule="nonzero"/></g><g clip-path="url(#ff8727971f)"><path fill="#000000" d="M 250.753906 205.097656 L 173.597656 339.660156 C 178.035156 340.050781 182.523438 340.285156 187.058594 340.285156 C 231.707031 340.285156 271.941406 321.082031 299.976562 290.515625 Z M 250.753906 205.097656 " fill-opacity="1" fill-rule="nonzero"/></g><g clip-path="url(#f5e54af9ae)"><g clip-path="url(#eca48c0f2b)"><g clip-path="url(#3932e625e4)"><path fill="url(#72d0409eed)" d="M 229.339844 145.34375 L 145.34375 145.34375 L 145.34375 229.339844 L 229.339844 229.339844 Z M 229.339844 145.34375 " fill-rule="nonzero"/></g></g></g></svg>